<mxfile host="app.diagrams.net" modified="2023-06-04T14:53:36.507Z" agent="Mozilla/5.0 (X11; Linux x86_64) AppleWebKit/537.36 (KHTML, like Gecko) Chrome/113.0.0.0 Safari/537.36" etag="8xHEz2taEcjFxMmQLAEw" version="21.3.7" type="device">
  <diagram name="Page-1" id="ljDhld7403jB-4OP9t-t">
    <mxGraphModel dx="885" dy="536" grid="1" gridSize="10" guides="1" tooltips="1" connect="1" arrows="1" fold="1" page="1" pageScale="1" pageWidth="850" pageHeight="1100" math="0" shadow="0">
      <root>
        <mxCell id="0" />
        <mxCell id="1" parent="0" />
        <mxCell id="e-TDs5olHVVsqxmqAF3Q-1" value="" style="rounded=0;whiteSpace=wrap;html=1;fillColor=#dae8fc;strokeColor=#6c8ebf;movable=1;resizable=1;rotatable=1;deletable=1;editable=1;locked=0;connectable=1;" vertex="1" parent="1">
          <mxGeometry x="250" y="160" width="470" height="330" as="geometry" />
        </mxCell>
        <mxCell id="e-TDs5olHVVsqxmqAF3Q-3" value="&lt;b&gt;&lt;font style=&quot;font-size: 13px;&quot;&gt;Host OS&lt;/font&gt;&lt;/b&gt;" style="text;html=1;strokeColor=none;fillColor=none;align=center;verticalAlign=middle;whiteSpace=wrap;rounded=0;" vertex="1" parent="1">
          <mxGeometry x="255.16" y="160" width="60" height="30" as="geometry" />
        </mxCell>
        <mxCell id="e-TDs5olHVVsqxmqAF3Q-2" value="" style="rounded=0;whiteSpace=wrap;html=1;fillColor=#e1d5e7;strokeColor=#9673a6;" vertex="1" parent="1">
          <mxGeometry x="290" y="260" width="390" height="220" as="geometry" />
        </mxCell>
        <mxCell id="e-TDs5olHVVsqxmqAF3Q-5" value="" style="rounded=0;whiteSpace=wrap;html=1;" vertex="1" parent="1">
          <mxGeometry x="315.16129032258067" y="306.25" width="100.64516129032258" height="129.375" as="geometry" />
        </mxCell>
        <mxCell id="e-TDs5olHVVsqxmqAF3Q-8" value="" style="rounded=0;whiteSpace=wrap;html=1;" vertex="1" parent="1">
          <mxGeometry x="434.6774193548387" y="306.25" width="100.64516129032258" height="129.375" as="geometry" />
        </mxCell>
        <mxCell id="e-TDs5olHVVsqxmqAF3Q-9" value="" style="rounded=0;whiteSpace=wrap;html=1;" vertex="1" parent="1">
          <mxGeometry x="554.1935483870968" y="306.25" width="100.64516129032258" height="129.375" as="geometry" />
        </mxCell>
        <mxCell id="e-TDs5olHVVsqxmqAF3Q-30" style="orthogonalLoop=1;jettySize=auto;html=1;endArrow=none;endFill=0;startArrow=classic;startFill=1;curved=1;" edge="1" parent="1">
          <mxGeometry relative="1" as="geometry">
            <mxPoint x="480" y="270" as="sourcePoint" />
            <mxPoint x="420" y="210" as="targetPoint" />
            <Array as="points">
              <mxPoint x="440" y="240" />
            </Array>
          </mxGeometry>
        </mxCell>
        <mxCell id="e-TDs5olHVVsqxmqAF3Q-10" value="nodePort: 30080" style="rounded=1;whiteSpace=wrap;html=1;fillColor=#d5e8d4;strokeColor=#82b366;" vertex="1" parent="1">
          <mxGeometry x="344.0967741935484" y="277.5" width="285.5806451612903" height="28.75" as="geometry" />
        </mxCell>
        <mxCell id="e-TDs5olHVVsqxmqAF3Q-12" value="Pod" style="ellipse;whiteSpace=wrap;html=1;aspect=fixed;fillColor=#f8cecc;strokeColor=#b85450;" vertex="1" parent="1">
          <mxGeometry x="344.0967741935484" y="363.75" width="37.74193548387097" height="37.74193548387097" as="geometry" />
        </mxCell>
        <mxCell id="e-TDs5olHVVsqxmqAF3Q-13" value="Pod" style="ellipse;whiteSpace=wrap;html=1;aspect=fixed;fillColor=#f8cecc;strokeColor=#b85450;" vertex="1" parent="1">
          <mxGeometry x="466.1290322580645" y="363.75" width="37.74193548387097" height="37.74193548387097" as="geometry" />
        </mxCell>
        <mxCell id="e-TDs5olHVVsqxmqAF3Q-14" value="Pod" style="ellipse;whiteSpace=wrap;html=1;aspect=fixed;fillColor=#f8cecc;strokeColor=#b85450;" vertex="1" parent="1">
          <mxGeometry x="591.9354838709678" y="363.75" width="37.74193548387097" height="37.74193548387097" as="geometry" />
        </mxCell>
        <mxCell id="e-TDs5olHVVsqxmqAF3Q-21" style="edgeStyle=orthogonalEdgeStyle;orthogonalLoop=1;jettySize=auto;html=1;exitX=0.5;exitY=1;exitDx=0;exitDy=0;entryX=0.5;entryY=0;entryDx=0;entryDy=0;curved=1;endArrow=none;endFill=0;" edge="1" parent="1" source="e-TDs5olHVVsqxmqAF3Q-15" target="e-TDs5olHVVsqxmqAF3Q-12">
          <mxGeometry relative="1" as="geometry">
            <Array as="points">
              <mxPoint x="487.51612903225805" y="363.75" />
            </Array>
          </mxGeometry>
        </mxCell>
        <mxCell id="e-TDs5olHVVsqxmqAF3Q-22" style="edgeStyle=orthogonalEdgeStyle;orthogonalLoop=1;jettySize=auto;html=1;exitX=0.5;exitY=1;exitDx=0;exitDy=0;entryX=0.5;entryY=0;entryDx=0;entryDy=0;endArrow=none;endFill=0;curved=1;" edge="1" parent="1" source="e-TDs5olHVVsqxmqAF3Q-15" target="e-TDs5olHVVsqxmqAF3Q-13">
          <mxGeometry relative="1" as="geometry" />
        </mxCell>
        <mxCell id="e-TDs5olHVVsqxmqAF3Q-23" style="edgeStyle=orthogonalEdgeStyle;orthogonalLoop=1;jettySize=auto;html=1;exitX=0.5;exitY=1;exitDx=0;exitDy=0;entryX=0.5;entryY=0;entryDx=0;entryDy=0;curved=1;endArrow=none;endFill=0;" edge="1" parent="1" source="e-TDs5olHVVsqxmqAF3Q-15" target="e-TDs5olHVVsqxmqAF3Q-14">
          <mxGeometry relative="1" as="geometry">
            <Array as="points">
              <mxPoint x="487.51612903225805" y="363.75" />
            </Array>
          </mxGeometry>
        </mxCell>
        <mxCell id="e-TDs5olHVVsqxmqAF3Q-15" value="ClusterIP Service" style="rounded=1;whiteSpace=wrap;html=1;fillColor=#fff2cc;strokeColor=#d6b656;" vertex="1" parent="1">
          <mxGeometry x="344.0967741935484" y="320.625" width="285.5806451612903" height="28.75" as="geometry" />
        </mxCell>
        <mxCell id="e-TDs5olHVVsqxmqAF3Q-16" style="edgeStyle=orthogonalEdgeStyle;rounded=0;orthogonalLoop=1;jettySize=auto;html=1;exitX=0.5;exitY=0;exitDx=0;exitDy=0;entryX=0.5;entryY=0;entryDx=0;entryDy=0;" edge="1" parent="1" source="e-TDs5olHVVsqxmqAF3Q-8" target="e-TDs5olHVVsqxmqAF3Q-15">
          <mxGeometry relative="1" as="geometry" />
        </mxCell>
        <mxCell id="e-TDs5olHVVsqxmqAF3Q-17" style="edgeStyle=orthogonalEdgeStyle;rounded=0;orthogonalLoop=1;jettySize=auto;html=1;exitX=0.5;exitY=1;exitDx=0;exitDy=0;entryX=0.5;entryY=0;entryDx=0;entryDy=0;endArrow=none;endFill=0;" edge="1" parent="1" source="e-TDs5olHVVsqxmqAF3Q-10" target="e-TDs5olHVVsqxmqAF3Q-15">
          <mxGeometry relative="1" as="geometry" />
        </mxCell>
        <mxCell id="e-TDs5olHVVsqxmqAF3Q-24" value="Docker CT" style="text;html=1;strokeColor=none;fillColor=none;align=center;verticalAlign=middle;whiteSpace=wrap;rounded=0;" vertex="1" parent="1">
          <mxGeometry x="327.741935483871" y="399.6875" width="75.48387096774194" height="43.125" as="geometry" />
        </mxCell>
        <mxCell id="e-TDs5olHVVsqxmqAF3Q-25" value="Docker CT" style="text;html=1;strokeColor=none;fillColor=none;align=center;verticalAlign=middle;whiteSpace=wrap;rounded=0;" vertex="1" parent="1">
          <mxGeometry x="449.14516129032256" y="399.6875" width="75.48387096774194" height="43.125" as="geometry" />
        </mxCell>
        <mxCell id="e-TDs5olHVVsqxmqAF3Q-26" value="Docker CT" style="text;html=1;strokeColor=none;fillColor=none;align=center;verticalAlign=middle;whiteSpace=wrap;rounded=0;" vertex="1" parent="1">
          <mxGeometry x="573.0645161290322" y="399.6875" width="75.48387096774194" height="43.125" as="geometry" />
        </mxCell>
        <mxCell id="e-TDs5olHVVsqxmqAF3Q-28" value="&lt;b&gt;Kubernetes Cluster&lt;/b&gt;" style="text;html=1;strokeColor=none;fillColor=none;align=center;verticalAlign=middle;whiteSpace=wrap;rounded=0;" vertex="1" parent="1">
          <mxGeometry x="422.5" y="450" width="125" height="30" as="geometry" />
        </mxCell>
        <mxCell id="e-TDs5olHVVsqxmqAF3Q-29" value="User" style="shape=umlActor;verticalLabelPosition=bottom;verticalAlign=top;html=1;outlineConnect=0;fillColor=#f8cecc;strokeColor=#b85450;" vertex="1" parent="1">
          <mxGeometry x="392.5" y="170" width="30" height="60" as="geometry" />
        </mxCell>
        <mxCell id="e-TDs5olHVVsqxmqAF3Q-32" value="" style="rounded=0;whiteSpace=wrap;html=1;fillColor=#dae8fc;strokeColor=#6c8ebf;movable=1;resizable=1;rotatable=1;deletable=1;editable=1;locked=0;connectable=1;" vertex="1" parent="1">
          <mxGeometry x="210" y="580" width="470" height="330" as="geometry" />
        </mxCell>
        <mxCell id="e-TDs5olHVVsqxmqAF3Q-33" value="&lt;b&gt;&lt;font style=&quot;font-size: 13px;&quot;&gt;Host OS&lt;/font&gt;&lt;/b&gt;" style="text;html=1;strokeColor=none;fillColor=none;align=center;verticalAlign=middle;whiteSpace=wrap;rounded=0;" vertex="1" parent="1">
          <mxGeometry x="215.15999999999997" y="580" width="60" height="30" as="geometry" />
        </mxCell>
        <mxCell id="e-TDs5olHVVsqxmqAF3Q-34" value="" style="rounded=0;whiteSpace=wrap;html=1;fillColor=#e1d5e7;strokeColor=#9673a6;" vertex="1" parent="1">
          <mxGeometry x="250" y="680" width="390" height="220" as="geometry" />
        </mxCell>
        <mxCell id="e-TDs5olHVVsqxmqAF3Q-35" value="" style="rounded=0;whiteSpace=wrap;html=1;" vertex="1" parent="1">
          <mxGeometry x="275.16129032258067" y="726.25" width="100.64516129032258" height="129.375" as="geometry" />
        </mxCell>
        <mxCell id="e-TDs5olHVVsqxmqAF3Q-36" value="" style="rounded=0;whiteSpace=wrap;html=1;" vertex="1" parent="1">
          <mxGeometry x="394.6774193548387" y="726.25" width="100.64516129032258" height="129.375" as="geometry" />
        </mxCell>
        <mxCell id="e-TDs5olHVVsqxmqAF3Q-37" value="" style="rounded=0;whiteSpace=wrap;html=1;" vertex="1" parent="1">
          <mxGeometry x="514.1935483870968" y="726.25" width="100.64516129032258" height="129.375" as="geometry" />
        </mxCell>
        <mxCell id="e-TDs5olHVVsqxmqAF3Q-38" style="orthogonalLoop=1;jettySize=auto;html=1;endArrow=none;endFill=0;startArrow=classic;startFill=1;curved=1;" edge="1" parent="1">
          <mxGeometry relative="1" as="geometry">
            <mxPoint x="440" y="690" as="sourcePoint" />
            <mxPoint x="380" y="630" as="targetPoint" />
            <Array as="points">
              <mxPoint x="400" y="660" />
            </Array>
          </mxGeometry>
        </mxCell>
        <mxCell id="e-TDs5olHVVsqxmqAF3Q-40" value="Pod" style="ellipse;whiteSpace=wrap;html=1;aspect=fixed;fillColor=#f8cecc;strokeColor=#b85450;" vertex="1" parent="1">
          <mxGeometry x="304.0967741935484" y="783.75" width="37.74193548387097" height="37.74193548387097" as="geometry" />
        </mxCell>
        <mxCell id="e-TDs5olHVVsqxmqAF3Q-41" value="Pod" style="ellipse;whiteSpace=wrap;html=1;aspect=fixed;fillColor=#f8cecc;strokeColor=#b85450;" vertex="1" parent="1">
          <mxGeometry x="426.1290322580645" y="783.75" width="37.74193548387097" height="37.74193548387097" as="geometry" />
        </mxCell>
        <mxCell id="e-TDs5olHVVsqxmqAF3Q-42" value="Pod" style="ellipse;whiteSpace=wrap;html=1;aspect=fixed;fillColor=#f8cecc;strokeColor=#b85450;" vertex="1" parent="1">
          <mxGeometry x="551.9354838709678" y="783.75" width="37.74193548387097" height="37.74193548387097" as="geometry" />
        </mxCell>
        <mxCell id="e-TDs5olHVVsqxmqAF3Q-43" style="edgeStyle=orthogonalEdgeStyle;orthogonalLoop=1;jettySize=auto;html=1;exitX=0.5;exitY=1;exitDx=0;exitDy=0;entryX=0.5;entryY=0;entryDx=0;entryDy=0;curved=1;endArrow=none;endFill=0;" edge="1" source="e-TDs5olHVVsqxmqAF3Q-46" target="e-TDs5olHVVsqxmqAF3Q-40" parent="1">
          <mxGeometry relative="1" as="geometry">
            <Array as="points">
              <mxPoint x="447.51612903225805" y="783.75" />
            </Array>
          </mxGeometry>
        </mxCell>
        <mxCell id="e-TDs5olHVVsqxmqAF3Q-44" style="edgeStyle=orthogonalEdgeStyle;orthogonalLoop=1;jettySize=auto;html=1;exitX=0.5;exitY=1;exitDx=0;exitDy=0;entryX=0.5;entryY=0;entryDx=0;entryDy=0;endArrow=none;endFill=0;curved=1;" edge="1" source="e-TDs5olHVVsqxmqAF3Q-46" target="e-TDs5olHVVsqxmqAF3Q-41" parent="1">
          <mxGeometry relative="1" as="geometry" />
        </mxCell>
        <mxCell id="e-TDs5olHVVsqxmqAF3Q-45" style="edgeStyle=orthogonalEdgeStyle;orthogonalLoop=1;jettySize=auto;html=1;exitX=0.5;exitY=1;exitDx=0;exitDy=0;entryX=0.5;entryY=0;entryDx=0;entryDy=0;curved=1;endArrow=none;endFill=0;" edge="1" source="e-TDs5olHVVsqxmqAF3Q-46" target="e-TDs5olHVVsqxmqAF3Q-42" parent="1">
          <mxGeometry relative="1" as="geometry">
            <Array as="points">
              <mxPoint x="447.51612903225805" y="783.75" />
            </Array>
          </mxGeometry>
        </mxCell>
        <mxCell id="e-TDs5olHVVsqxmqAF3Q-46" value="ClusterIP Service" style="rounded=1;whiteSpace=wrap;html=1;fillColor=#fff2cc;strokeColor=#d6b656;" vertex="1" parent="1">
          <mxGeometry x="304.0967741935484" y="725.625" width="285.5806451612903" height="28.75" as="geometry" />
        </mxCell>
        <mxCell id="e-TDs5olHVVsqxmqAF3Q-49" value="Docker CT" style="text;html=1;strokeColor=none;fillColor=none;align=center;verticalAlign=middle;whiteSpace=wrap;rounded=0;" vertex="1" parent="1">
          <mxGeometry x="287.741935483871" y="819.6875" width="75.48387096774194" height="43.125" as="geometry" />
        </mxCell>
        <mxCell id="e-TDs5olHVVsqxmqAF3Q-50" value="Docker CT" style="text;html=1;strokeColor=none;fillColor=none;align=center;verticalAlign=middle;whiteSpace=wrap;rounded=0;" vertex="1" parent="1">
          <mxGeometry x="409.14516129032256" y="819.6875" width="75.48387096774194" height="43.125" as="geometry" />
        </mxCell>
        <mxCell id="e-TDs5olHVVsqxmqAF3Q-51" value="Docker CT" style="text;html=1;strokeColor=none;fillColor=none;align=center;verticalAlign=middle;whiteSpace=wrap;rounded=0;" vertex="1" parent="1">
          <mxGeometry x="533.0645161290322" y="819.6875" width="75.48387096774194" height="43.125" as="geometry" />
        </mxCell>
        <mxCell id="e-TDs5olHVVsqxmqAF3Q-52" value="&lt;b&gt;Kubernetes Cluster&lt;/b&gt;" style="text;html=1;strokeColor=none;fillColor=none;align=center;verticalAlign=middle;whiteSpace=wrap;rounded=0;" vertex="1" parent="1">
          <mxGeometry x="382.5" y="870" width="125" height="30" as="geometry" />
        </mxCell>
        <mxCell id="e-TDs5olHVVsqxmqAF3Q-53" value="User" style="shape=umlActor;verticalLabelPosition=bottom;verticalAlign=top;html=1;outlineConnect=0;fillColor=#f8cecc;strokeColor=#b85450;" vertex="1" parent="1">
          <mxGeometry x="352.5" y="590" width="30" height="60" as="geometry" />
        </mxCell>
        <mxCell id="e-TDs5olHVVsqxmqAF3Q-54" value="&lt;b style=&quot;&quot;&gt;&lt;font style=&quot;font-size: 28px;&quot;&gt;????&lt;/font&gt;&lt;/b&gt;" style="text;html=1;strokeColor=none;fillColor=none;align=center;verticalAlign=middle;whiteSpace=wrap;rounded=0;" vertex="1" parent="1">
          <mxGeometry x="454.99999999999994" y="680" width="60" height="30" as="geometry" />
        </mxCell>
      </root>
    </mxGraphModel>
  </diagram>
</mxfile>
